<svg height="23" viewBox="0 0 57 23" width="57" xmlns="http://www.w3.org/2000/svg"><g fill="none" fill-rule="evenodd"><g opacity=".6" transform="translate(0 1.007007)"><g stroke="#c3cddd"><rect height="19.972141" rx="3" width="19.972141" x="1.395137" y=".453061"/><g transform="translate(8.119325 1.159904)"><path d="m.8778253.26534401 1.07437065 4.3065198m2.37982483 9.53931749 1.29787368 5.2024119"/><path d="m.87782554.26534401 1.07336537 4.3024902m2.42643672 9.72615719 1.25226707 5.0196018" transform="matrix(-1 0 0 1 6.50772 0)"/></g><g transform="matrix(0 1 -1 0 20.878263 7.524294)"><path d="m.8778253.26534401 1.07437065 4.3065198m2.37982483 9.53931749 1.29787368 5.2024119"/><path d="m.87782554.26534401 1.07336537 4.3024902m2.42643672 9.72615719 1.25226707 5.0196018" transform="matrix(-1 0 0 1 6.50772 0)"/></g></g><circle cx="11.373185" cy="10.439132" r="10.439132" stroke="#47505e"/><circle cx="11.373185" cy="10.439132" r="4.901711" stroke="#47505e"/></g><g transform="translate(34 1.007007)"><g stroke="#ffcbb3"><rect height="19.972141" rx="3" width="19.972141" x="1.395137" y=".453061"/><g transform="translate(8.119325 1.159904)"><path d="m.8778253.26534401 1.07437065 4.3065198m2.37982483 9.53931749 1.29787368 5.2024119"/><path d="m.87782554.26534401 1.07336537 4.3024902m2.42643672 9.72615719 1.25226707 5.0196018" transform="matrix(-1 0 0 1 6.50772 0)"/></g><g transform="matrix(0 1 -1 0 20.878263 7.524294)"><path d="m.8778253.26534401 1.07437065 4.3065198m2.37982483 9.53931749 1.29787368 5.2024119"/><path d="m.87782554.26534401 1.07336537 4.3024902m2.42643672 9.72615719 1.25226707 5.0196018" transform="matrix(-1 0 0 1 6.50772 0)"/></g></g><circle cx="11.373185" cy="10.439132" r="10.439132" stroke="#ff7f45"/><circle cx="11.373185" cy="10.439132" r="4.901711" stroke="#ff7f45"/></g></g></svg>