<svg height="24" viewBox="0 0 59 24" width="59" xmlns="http://www.w3.org/2000/svg"><g fill="none" fill-rule="evenodd"><g transform="translate(35 1)"><path d="m0 19 9.59887151-4 9.40112849 4v3h-19z" stroke="#ffcbb3"/><path d="m9.5 17c4.14214 0 7.5-3.35786 7.5-7.5 0-4.142136-3.35786-7.5-7.5-7.5-4.142136 0-7.5 3.357864-7.5 7.5 0 4.14214 3.357864 7.5 7.5 7.5z" fill="#fff" stroke="#ff7f45"/><path d="m11.0037915 14.3860385c0-1.6610421-1.34653877-3.0075824-3.0075824-3.0075824" stroke="#ffcbb3" transform="matrix(.70710678 -.70710678 .70710678 .70710678 -6.326639 10.490637)"/><g stroke="#ff7f45"><circle cx="17" cy="6" fill="#fff" r="6"/><path d="m15.3175983 5.97778309h3.4310327"/></g></g><g opacity=".6" transform="translate(1 1)"><path d="m0 19 9.59887151-4 9.40112849 4v3h-19z" stroke="#c3cddd"/><path d="m9.5 17c4.14214 0 7.5-3.35786 7.5-7.5 0-4.142136-3.35786-7.5-7.5-7.5-4.142136 0-7.5 3.357864-7.5 7.5 0 4.14214 3.357864 7.5 7.5 7.5z" fill="#fff" stroke="#47505e"/><path d="m11.0037915 14.3860385c0-1.6610421-1.34653877-3.0075824-3.0075824-3.0075824" stroke="#c3cddd" transform="matrix(.70710678 -.70710678 .70710678 .70710678 -6.326639 10.490637)"/><g stroke="#47505e"><circle cx="17" cy="6" fill="#fff" r="6"/><path d="m15.3175983 5.97778309h3.4310327"/></g></g></g></svg>