<svg height="24" viewBox="0 0 57 24" width="57" xmlns="http://www.w3.org/2000/svg"><g fill="none" fill-rule="evenodd"><g opacity=".6" transform="translate(0 1)"><path d="m14.2104995 21.0651601c-1.2615414-1.0676906-3.3119397-1.0634288-4.56844551 0l-.57112854.4833678c-1.2615414 1.0676906-2.39588973.5914805-2.53241584-1.048961l-.06205619-.7456415c-.13707325-1.6470157-1.58993733-3.0938527-3.23037881-3.2303788l-.74564155-.0620562c-1.6470157-.1370733-2.11238974-1.27591-1.04896099-2.5324158l.48336785-.5711286c1.06769055-1.2615414 1.06342876-3.3119397 0-4.56844552l-.48336785-.57112854c-1.06769054-1.2615414-.59148049-2.39588973 1.04896099-2.53241584l.74564155-.06205619c1.6470157-.13707325 3.0938527-1.58993733 3.23037881-3.23037881l.06205619-.74564155c.13707325-1.6470157 1.27591-2.11238974 2.53241584-1.04896098l.57112854.48336784c1.26154141 1.06769055 3.31193971 1.06342876 4.56844551 0l.5711286-.48336784c1.2615414-1.06769055 2.3958897-.5914805 2.5324158 1.04896098l.0620562.74564155c.1370732 1.6470157 1.5899373 3.0938527 3.2303788 3.23037881l.7456415.06205619c1.6470158.13707325 2.1123898 1.27591001 1.048961 2.53241584l-.4833678.57112854c-1.0676906 1.26154142-1.0634288 3.31193972 0 4.56844552l.4833678.5711286c1.0676906 1.2615414.5914805 2.3958897-1.048961 2.5324158l-.7456415.0620562c-1.6470157.1370732-3.0938527 1.5899373-3.2303788 3.2303788l-.0620562.7456415c-.1370732 1.6470157-1.27591 2.1123898-2.5324158 1.048961z" stroke="#47505e"/><circle cx="11.964777" cy="11.25615" r="5.167194" stroke="#c3cddd"/></g><g transform="translate(33 1)"><path d="m14.2104995 21.0651601c-1.2615414-1.0676906-3.3119397-1.0634288-4.56844551 0l-.57112854.4833678c-1.2615414 1.0676906-2.39588973.5914805-2.53241584-1.048961l-.06205619-.7456415c-.13707325-1.6470157-1.58993733-3.0938527-3.23037881-3.2303788l-.74564155-.0620562c-1.6470157-.1370733-2.11238974-1.27591-1.04896099-2.5324158l.48336785-.5711286c1.06769055-1.2615414 1.06342876-3.3119397 0-4.56844552l-.48336785-.57112854c-1.06769054-1.2615414-.59148049-2.39588973 1.04896099-2.53241584l.74564155-.06205619c1.6470157-.13707325 3.0938527-1.58993733 3.23037881-3.23037881l.06205619-.74564155c.13707325-1.6470157 1.27591-2.11238974 2.53241584-1.04896098l.57112854.48336784c1.26154141 1.06769055 3.31193971 1.06342876 4.56844551 0l.5711286-.48336784c1.2615414-1.06769055 2.3958897-.5914805 2.5324158 1.04896098l.0620562.74564155c.1370732 1.6470157 1.5899373 3.0938527 3.2303788 3.23037881l.7456415.06205619c1.6470158.13707325 2.1123898 1.27591001 1.048961 2.53241584l-.4833678.57112854c-1.0676906 1.26154142-1.0634288 3.31193972 0 4.56844552l.4833678.5711286c1.0676906 1.2615414.5914805 2.3958897-1.048961 2.5324158l-.7456415.0620562c-1.6470157.1370732-3.0938527 1.5899373-3.2303788 3.2303788l-.0620562.7456415c-.1370732 1.6470157-1.27591 2.1123898-2.5324158 1.048961z" stroke="#ff7f45"/><circle cx="11.964777" cy="11.25615" r="5.167194" stroke="#ffcbb3"/></g></g></svg>