<svg height="20" viewBox="0 0 57 20" width="57" xmlns="http://www.w3.org/2000/svg"><g fill="none" fill-rule="evenodd"><g opacity=".6" transform="translate(0 .357345)"><g stroke="#c3cddc"><path d="m5.473708 12.57629h4.518223v6.066366h-4.518223z"/><path d="m4.73281927 4.15746736v3"/><path d="m7.73281927 4.15746736v3"/><path d="m10.7328193 4.15746736v3"/><path d="m13.802402 6.658091h7.793652v11.984564h-7.793652z"/><path d="m16.9768463 11.3187551h1.3316182" fill="#fff"/><path d="m16.9768463 15.3136098h1.3316182" fill="#fff"/></g><path d="m1.663236.433907h12.139166v18.208748h-12.139166z" stroke="#47505e"/><path d="m.35781461 3.66195016h14.80113599" fill="#fff" stroke="#47505e"/><path d="m.35781461 7.65680489h14.80113599" fill="#fff" stroke="#47505e"/></g><g transform="translate(34 .357345)"><g stroke="#ffcbb3"><path d="m5.473708 12.57629h4.518223v6.066366h-4.518223z"/><path d="m4.73281927 4.15746736v3"/><path d="m7.73281927 4.15746736v3"/><path d="m10.7328193 4.15746736v3"/><path d="m13.802402 6.658091h7.793652v11.984564h-7.793652z"/><path d="m16.9768463 11.3187551h1.3316182" fill="#fff"/><path d="m16.9768463 15.3136098h1.3316182" fill="#fff"/></g><path d="m1.663236.433907h12.139166v18.208748h-12.139166z" stroke="#ff7f45"/><path d="m.35781461 3.66195016h14.80113599" fill="#fff" stroke="#ff7f45"/><path d="m.35781461 7.65680489h14.80113599" fill="#fff" stroke="#ff7f45"/></g></g></svg>